<?xml version="1.0" standalone="no"?>
<!DOCTYPE svg PUBLIC "-//W3C//DTD SVG 1.1//EN"
   "http://www.w3.org/Graphics/SVG/1.1/DTD/svg11.dtd">
<svg width="398" height="59" version="1.1"
   xmlns="http://www.w3.org/2000/svg">
   <desc>Hoping to make the clinical trial
   </desc>

   <g id="barcode" fill="#000000">
      <rect x="0" y="0" width="398" height="59" fill="#FFFFFF" />
      <rect x="0.00" y="0.00" width="2.00" height="50.00" />
      <rect x="3.00" y="0.00" width="1.00" height="50.00" />
      <rect x="6.00" y="0.00" width="1.00" height="50.00" />
      <rect x="11.00" y="0.00" width="2.00" height="50.00" />
      <rect x="16.00" y="0.00" width="1.00" height="50.00" />
      <rect x="18.00" y="0.00" width="1.00" height="50.00" />
      <rect x="22.00" y="0.00" width="1.00" height="50.00" />
      <rect x="26.00" y="0.00" width="4.00" height="50.00" />
      <rect x="31.00" y="0.00" width="1.00" height="50.00" />
      <rect x="33.00" y="0.00" width="1.00" height="50.00" />
      <rect x="35.00" y="0.00" width="1.00" height="50.00" />
      <rect x="38.00" y="0.00" width="4.00" height="50.00" />
      <rect x="44.00" y="0.00" width="1.00" height="50.00" />
      <rect x="49.00" y="0.00" width="2.00" height="50.00" />
      <rect x="52.00" y="0.00" width="1.00" height="50.00" />
      <rect x="55.00" y="0.00" width="2.00" height="50.00" />
      <rect x="61.00" y="0.00" width="1.00" height="50.00" />
      <rect x="63.00" y="0.00" width="1.00" height="50.00" />
      <rect x="66.00" y="0.00" width="1.00" height="50.00" />
      <rect x="69.00" y="0.00" width="2.00" height="50.00" />
      <rect x="72.00" y="0.00" width="1.00" height="50.00" />
      <rect x="77.00" y="0.00" width="2.00" height="50.00" />
      <rect x="80.00" y="0.00" width="2.00" height="50.00" />
      <rect x="84.00" y="0.00" width="2.00" height="50.00" />
      <rect x="88.00" y="0.00" width="1.00" height="50.00" />
      <rect x="91.00" y="0.00" width="4.00" height="50.00" />
      <rect x="96.00" y="0.00" width="1.00" height="50.00" />
      <rect x="99.00" y="0.00" width="1.00" height="50.00" />
      <rect x="103.00" y="0.00" width="4.00" height="50.00" />
      <rect x="108.00" y="0.00" width="1.00" height="50.00" />
      <rect x="110.00" y="0.00" width="2.00" height="50.00" />
      <rect x="113.00" y="0.00" width="2.00" height="50.00" />
      <rect x="117.00" y="0.00" width="2.00" height="50.00" />
      <rect x="121.00" y="0.00" width="4.00" height="50.00" />
      <rect x="126.00" y="0.00" width="3.00" height="50.00" />
      <rect x="130.00" y="0.00" width="1.00" height="50.00" />
      <rect x="132.00" y="0.00" width="1.00" height="50.00" />
      <rect x="135.00" y="0.00" width="1.00" height="50.00" />
      <rect x="137.00" y="0.00" width="2.00" height="50.00" />
      <rect x="143.00" y="0.00" width="2.00" height="50.00" />
      <rect x="149.00" y="0.00" width="1.00" height="50.00" />
      <rect x="152.00" y="0.00" width="1.00" height="50.00" />
      <rect x="154.00" y="0.00" width="1.00" height="50.00" />
      <rect x="156.00" y="0.00" width="2.00" height="50.00" />
      <rect x="160.00" y="0.00" width="1.00" height="50.00" />
      <rect x="165.00" y="0.00" width="2.00" height="50.00" />
      <rect x="168.00" y="0.00" width="2.00" height="50.00" />
      <rect x="172.00" y="0.00" width="2.00" height="50.00" />
      <rect x="176.00" y="0.00" width="1.00" height="50.00" />
      <rect x="179.00" y="0.00" width="4.00" height="50.00" />
      <rect x="184.00" y="0.00" width="1.00" height="50.00" />
      <rect x="187.00" y="0.00" width="1.00" height="50.00" />
      <rect x="190.00" y="0.00" width="2.00" height="50.00" />
      <rect x="196.00" y="0.00" width="1.00" height="50.00" />
      <rect x="198.00" y="0.00" width="1.00" height="50.00" />
      <rect x="200.00" y="0.00" width="2.00" height="50.00" />
      <rect x="204.00" y="0.00" width="1.00" height="50.00" />
      <rect x="209.00" y="0.00" width="2.00" height="50.00" />
      <rect x="212.00" y="0.00" width="2.00" height="50.00" />
      <rect x="216.00" y="0.00" width="2.00" height="50.00" />
      <rect x="220.00" y="0.00" width="1.00" height="50.00" />
      <rect x="225.00" y="0.00" width="1.00" height="50.00" />
      <rect x="227.00" y="0.00" width="2.00" height="50.00" />
      <rect x="231.00" y="0.00" width="2.00" height="50.00" />
      <rect x="235.00" y="0.00" width="1.00" height="50.00" />
      <rect x="237.00" y="0.00" width="1.00" height="50.00" />
      <rect x="242.00" y="0.00" width="1.00" height="50.00" />
      <rect x="247.00" y="0.00" width="2.00" height="50.00" />
      <rect x="250.00" y="0.00" width="1.00" height="50.00" />
      <rect x="253.00" y="0.00" width="2.00" height="50.00" />
      <rect x="259.00" y="0.00" width="1.00" height="50.00" />
      <rect x="261.00" y="0.00" width="1.00" height="50.00" />
      <rect x="264.00" y="0.00" width="1.00" height="50.00" />
      <rect x="269.00" y="0.00" width="2.00" height="50.00" />
      <rect x="272.00" y="0.00" width="1.00" height="50.00" />
      <rect x="275.00" y="0.00" width="1.00" height="50.00" />
      <rect x="280.00" y="0.00" width="1.00" height="50.00" />
      <rect x="282.00" y="0.00" width="2.00" height="50.00" />
      <rect x="286.00" y="0.00" width="1.00" height="50.00" />
      <rect x="289.00" y="0.00" width="1.00" height="50.00" />
      <rect x="291.00" y="0.00" width="2.00" height="50.00" />
      <rect x="297.00" y="0.00" width="2.00" height="50.00" />
      <rect x="301.00" y="0.00" width="1.00" height="50.00" />
      <rect x="303.00" y="0.00" width="1.00" height="50.00" />
      <rect x="308.00" y="0.00" width="2.00" height="50.00" />
      <rect x="311.00" y="0.00" width="2.00" height="50.00" />
      <rect x="315.00" y="0.00" width="2.00" height="50.00" />
      <rect x="319.00" y="0.00" width="1.00" height="50.00" />
      <rect x="322.00" y="0.00" width="4.00" height="50.00" />
      <rect x="327.00" y="0.00" width="1.00" height="50.00" />
      <rect x="330.00" y="0.00" width="1.00" height="50.00" />
      <rect x="333.00" y="0.00" width="1.00" height="50.00" />
      <rect x="336.00" y="0.00" width="4.00" height="50.00" />
      <rect x="341.00" y="0.00" width="1.00" height="50.00" />
      <rect x="346.00" y="0.00" width="2.00" height="50.00" />
      <rect x="349.00" y="0.00" width="1.00" height="50.00" />
      <rect x="352.00" y="0.00" width="1.00" height="50.00" />
      <rect x="355.00" y="0.00" width="1.00" height="50.00" />
      <rect x="357.00" y="0.00" width="2.00" height="50.00" />
      <rect x="363.00" y="0.00" width="2.00" height="50.00" />
      <rect x="367.00" y="0.00" width="1.00" height="50.00" />
      <rect x="369.00" y="0.00" width="1.00" height="50.00" />
      <rect x="374.00" y="0.00" width="3.00" height="50.00" />
      <rect x="379.00" y="0.00" width="1.00" height="50.00" />
      <rect x="381.00" y="0.00" width="2.00" height="50.00" />
      <rect x="385.00" y="0.00" width="2.00" height="50.00" />
      <rect x="390.00" y="0.00" width="3.00" height="50.00" />
      <rect x="394.00" y="0.00" width="1.00" height="50.00" />
      <rect x="396.00" y="0.00" width="2.00" height="50.00" />
      <text x="199.00" y="59.00" text-anchor="middle"
         font-family="Helvetica" font-size="8.0" fill="#000000" >
         Hoping to make the clinical trial
      </text>
   </g>
</svg>
